inDegrees=yes
name=ik_S50_A12_T01
DataType=double
version=3
OpenSimVersion=4.3-2021-08-27-4bc7ad9
endheader
time	pelvis_tilt	pelvis_list	pelvis_rotation	pelvis_tx	pelvis_ty	pelvis_tz	hip_flexion_r	hip_adduction_r	hip_rotation_r	knee_angle_r	knee_angle_r_beta	ankle_angle_r	subtalar_angle_r	mtp_angle_r	hip_flexion_l	hip_adduction_l	hip_rotation_l	knee_angle_l	knee_angle_l_beta	ankle_angle_l	subtalar_angle_l	mtp_angle_l	lumbar_extension	lumbar_bending	lumbar_rotation	arm_flex_r	arm_add_r	arm_rot_r	elbow_flex_r	pro_sup_r	wrist_flex_r	wrist_dev_r	arm_flex_l	arm_add_l	arm_rot_l	elbow_flex_l	pro_sup_l	wrist_flex_l	wrist_dev_l
11.31999999999985	-2.885374375930477	0.9812605692254698	28.16795988749846	0	0.9399999999999999	0	26.34453196273713	-8.852635249700121	-7.901759102128275	28.7430375419204	0.5016606421308486	0	0	0	26.34453196273713	-8.852635249700121	-7.901759102128275	28.7430375419204	0.5016606421308486	0	0	0	-1.414429705943667	1.32351677420623	14.32034251014331	9.78876402681624	-9.61980115362547	-7.575233166868719	6.73582738709814	130.9831992851419	0	0	96.72464342523944	-6.480682007801377	25.81777417574557	32.83937584468661	50.70690894067676	0	0
11.33999999999985	-2.891654834443568	0.9735956907078189	28.17743234470875	0	0.9399999999999999	0	26.37026046116707	-8.85614264581705	-7.906795565091604	28.77061228852119	0.5021419122494355	0	0	0	26.37026046116707	-8.85614264581705	-7.906795565091604	28.77061228852119	0.5021419122494355	0	0	0	-1.424535645523502	1.320397539155981	14.3200304078517	9.797426465811348	-9.61506200192926	-7.56594621086955	6.721066342553104	130.9853463856377	0	0	96.73417481477364	-6.437650551381394	25.79588441313211	32.83767816449385	50.63473825373917	0	0
11.35999999999985	-2.897983996657591	0.969455530404677	28.17077071908219	0	0.9399999999999999	0	26.39350055657082	-8.859315433930526	-7.911335036741586	28.79551453217438	0.5025765383923176	0	0	0	26.39350055657082	-8.859315433930526	-7.911335036741586	28.79551453217438	0.5025765383923176	0	0	0	-1.432899801531773	1.320246334674893	14.32230533203612	9.812675654983822	-9.59252989914682	-7.585606454607246	6.708669436214658	131.0053585250381	0	0	96.7564059527953	-6.409644620221819	25.72104918989242	32.79725809762099	50.57463066005626	0	0
11.37999999999985	-2.905077137179375	0.9759857543455321	28.16163097389898	0	0.9399999999999999	0	26.39982615860165	-8.860581610305431	-7.912826561752227	28.80222147963513	0.502693596708266	0	0	0	26.39982615860165	-8.860581610305431	-7.912826561752227	28.80222147963513	0.502693596708266	0	0	0	-1.43645938754176	1.329242288980733	14.33518170392248	9.807974021429882	-9.617837520957591	-7.595495887276128	6.71140503750191	131.0196311552384	0	0	96.76696974715642	-6.339342005885029	25.35815010209813	32.52612310394556	50.79444587559433	0	0
11.39999999999985	-2.897478028659295	0.9655290527495652	28.19624656294749	0	0.9399999999999999	0	26.4464728233191	-8.867095574863903	-7.922062246537873	28.85217584382952	0.5035654648391984	0	0	0	26.4464728233191	-8.867095574863903	-7.922062246537873	28.85217584382952	0.5035654648391984	0	0	0	-1.435908235175664	1.318046416840853	14.31007756128394	9.809546509630882	-9.582813968005233	-7.578620264019099	6.719738583043705	130.9510343314365	0	0	96.74300661311568	-6.388115600841375	25.27291242712813	32.56181413274897	50.91220154300816	0	0
11.41999999999985	-2.910118214010425	0.9579426656672569	28.23148482289249	0	0.9399999999999999	0	26.48140157770939	-8.871770432391383	-7.928837364524317	28.88965676477908	0.5042196303164479	0	0	0	26.48140157770939	-8.871770432391383	-7.928837364524317	28.88965676477908	0.5042196303164479	0	0	0	-1.45151066594874	1.318613441345303	14.28706531067804	9.848723075906685	-9.566573100440076	-7.561214223493759	6.683819816927724	130.9411845268609	0	0	96.74849176678383	-6.416429851621958	25.19419265182101	32.50345315908028	51.11567243331925	0	0
11.43999999999984	-2.921389194003137	0.9595401462650969	28.24654264688414	0	0.9399999999999999	0	26.49109890093484	-8.873602974601166	-7.931045093924091	28.89987381550115	0.5043979514913912	0	0	0	26.49109890093484	-8.873602974601166	-7.931045093924091	28.89987381550115	0.5043979514913912	0	0	0	-1.460957438734369	1.325578679627153	14.28477859125551	9.879056138982687	-9.558307666749471	-7.580319766856098	6.667483958608159	130.9544159885151	0	0	96.75296383360039	-6.43017757310677	25.23822774376295	32.4643712349357	51.14955866188004	0	0
11.45999999999984	-2.922547866828884	0.9621689234883459	28.27220572540003	0	0.9399999999999999	0	26.50003360054582	-8.875178682494768	-7.933007111973439	28.90932934778562	0.5045629816622839	0	0	0	26.50003360054582	-8.875178682494768	-7.933007111973439	28.90932934778562	0.5045629816622839	0	0	0	-1.461076208614793	1.32853498989185	14.28826810882204	9.884023747691078	-9.559659301421316	-7.613315703495797	6.643928256224579	130.9775985693794	0	0	96.74835810961314	-6.423748465911994	25.32502771213556	32.46455901740847	51.09858965806318	0	0
11.47999999999984	-2.921021167947385	0.9614384727833191	28.2922047885831	0	0.9399999999999999	0	26.51105662470372	-8.877032084704586	-7.935375340996235	28.92102058597605	0.5047670322623419	0	0	0	26.51105662470372	-8.877032084704586	-7.935375340996235	28.92102058597605	0.5047670322623419	0	0	0	-1.460397919612237	1.327402331092377	14.28597306304995	9.890987567481849	-9.539122727282177	-7.617408652098106	6.621535671924346	130.9867873149739	0	0	96.75014113937873	-6.435167970198177	25.39527953325887	32.464473574873	51.03141665118631	0	0
